<svg xmlns="http://www.w3.org/2000/svg" version="1.1" xmlns:xlink="http://www.w3.org/1999/xlink" xmlns:svgjs="http://svgjs.dev/svgjs" width="1000" height="330" viewBox="0 0 1000 330"><g transform="matrix(1,0,0,1,-0.6060456249592221,-0.4261378608453299)"><svg viewBox="0 0 396 131" data-background-color="#61777f" preserveAspectRatio="xMidYMid meet" height="330" width="1000" xmlns="http://www.w3.org/2000/svg" xmlns:xlink="http://www.w3.org/1999/xlink"><g id="tight-bounds" transform="matrix(1,0,0,1,0.239994067483849,0.16916381748708886)"><svg viewBox="0 0 395.52 130.6616723650258" height="130.6616723650258" width="395.52"><g><svg viewBox="0 0 665.3627758888466 219.80535251585903" height="130.6616723650258" width="395.52"><g transform="matrix(1,0,0,1,269.84277588884663,32.862673341899566)"><svg viewBox="0 0 395.52 154.0800058320599" height="154.0800058320599" width="395.52"><g id="textblocktransform"><svg viewBox="0 0 395.52 154.0800058320599" height="154.0800058320599" width="395.52" id="textblock"><g><svg viewBox="0 0 395.52 105.9773618940248" height="105.9773618940248" width="395.52"><g transform="matrix(1,0,0,1,0,0)"><svg width="395.52" viewBox="5 -35.04999923706055 133.0399932861328 35.64999771118164" height="105.9773618940248" data-palette-color="#ffffff"><g class="undefined-text-0" data-fill-palette-color="primary" id="text-0"><path d="M9.75 0L5 0 5-34.45 23.3-34.45 22.75-30.65 9.75-30.65 9.75-18.9 21-18.9 21-15.15 9.75-15.15 9.75 0ZM29.55-34.45L34.3-34.45 34.3-4.15 48.45-4.15 47.9 0 29.55 0 29.55-34.45ZM66.75-35.05Q71.1-35.05 74.37-32.98 77.65-30.9 79.47-26.9 81.3-22.9 81.3-17.2L81.3-17.2Q81.3-11.6 79.47-7.6 77.65-3.6 74.37-1.5 71.1 0.6 66.75 0.6L66.75 0.6Q62.4 0.6 59.12-1.45 55.85-3.5 54.02-7.5 52.2-11.5 52.2-17.15L52.2-17.15Q52.2-22.7 54.02-26.75 55.85-30.8 59.15-32.93 62.45-35.05 66.75-35.05L66.75-35.05ZM66.75-31.15Q62.25-31.15 59.75-27.75 57.25-24.35 57.25-17.15L57.25-17.15Q57.25-10 59.77-6.65 62.3-3.3 66.75-3.3L66.75-3.3Q76.25-3.3 76.25-17.2L76.25-17.2Q76.25-31.15 66.75-31.15L66.75-31.15ZM112.39 0L107.39 0 104.79-8.65 91.74-8.65 89.14 0 84.34 0 95.39-34.45 101.39-34.45 112.39 0ZM98.29-30.5L92.89-12.5 103.64-12.5 98.29-30.5ZM113.44-34.45L138.04-34.45 137.54-30.4 127.99-30.4 127.99 0 123.24 0 123.24-30.4 113.44-30.4 113.44-34.45Z" fill="#ffffff" data-fill-palette-color="primary"></path></g></svg></g></svg></g><g transform="matrix(1,0,0,1,0,130.99607358051858)"><svg viewBox="0 0 300.5952 23.083932251541302" height="23.083932251541302" width="300.5952"><g transform="matrix(1,0,0,1,0,0)"><svg width="300.5952" viewBox="0.8799999952316284 -37.52000045776367 494.94000244140625 38.01000213623047" height="23.083932251541302" data-palette-color="#ffffff"><path d="M30.59-35.55L30.59-28.93 19.92-28.93 19.92 0 11.35 0 11.35-28.93 0.88-28.93 0.88-35.55 30.59-35.55ZM48.36-26.61L48.22-18.97 45.51-19.17Q41.62-19.17 40.52-16.72L40.52-16.72 40.52 0 32.3 0 32.3-26.42 40.01-26.42 40.28-23.02Q42.36-26.9 46.07-26.9L46.07-26.9Q47.39-26.9 48.36-26.61L48.36-26.61ZM73.55 0L65.33 0Q64.89-0.81 64.55-2.37L64.55-2.37Q62.28 0.49 58.2 0.49L58.2 0.49Q54.46 0.49 51.85-1.77 49.24-4.03 49.24-7.45L49.24-7.45Q49.24-11.74 52.41-13.94 55.59-16.14 61.64-16.14L61.64-16.14 64.18-16.14 64.18-17.53Q64.18-21.17 61.03-21.17L61.03-21.17Q58.1-21.17 58.1-18.29L58.1-18.29 49.87-18.29Q49.87-22.12 53.13-24.51 56.39-26.9 61.45-26.9 66.5-26.9 69.43-24.44 72.36-21.97 72.43-17.68L72.43-17.68 72.43-5.98Q72.48-2.34 73.55-0.42L73.55-0.42 73.55 0ZM60.18-5.37L60.18-5.37Q61.71-5.37 62.73-6.03 63.74-6.69 64.18-7.52L64.18-7.52 64.18-11.74 61.79-11.74Q57.49-11.74 57.49-7.89L57.49-7.89Q57.49-6.76 58.25-6.07 59-5.37 60.18-5.37ZM88.15-5.86L88.15-5.86Q89.89-5.86 90.84-6.8 91.79-7.74 91.76-9.42L91.76-9.42 99.48-9.42Q99.48-5.08 96.37-2.29 93.25 0.49 88.35 0.49L88.35 0.49Q82.59 0.49 79.26-3.13 75.94-6.74 75.94-13.13L75.94-13.13 75.94-13.48Q75.94-17.48 77.42-20.54 78.9-23.61 81.68-25.26 84.47-26.9 88.27-26.9L88.27-26.9Q93.43-26.9 96.45-24.05 99.48-21.19 99.48-16.31L99.48-16.31 91.76-16.31Q91.76-18.36 90.76-19.46 89.76-20.56 88.08-20.56L88.08-20.56Q84.88-20.56 84.34-16.48L84.34-16.48Q84.17-15.19 84.17-12.92L84.17-12.92Q84.17-8.94 85.12-7.4 86.08-5.86 88.15-5.86ZM119.33 0L113.56-9.84 111.24-7.52 111.24 0 103.02 0 103.02-37.52 111.24-37.52 111.24-17.6 112.07-18.7 118.28-26.42 128.14-26.42 118.89-15.55 128.75 0 119.33 0ZM149.57-35.55L156.14-20.12 162.68-35.55 171.93-35.55 160.48-12.77 160.48 0 151.79 0 151.79-12.77 140.37-35.55 149.57-35.55ZM171.54-12.06L171.52-13.45Q171.52-17.41 173.05-20.5 174.59-23.58 177.47-25.24 180.35-26.9 184.24-26.9L184.24-26.9Q190.17-26.9 193.59-23.23 197-19.56 197-13.23L197-13.23 197-12.94Q197-6.76 193.57-3.14 190.14 0.49 184.28 0.49L184.28 0.49Q178.64 0.49 175.23-2.89 171.81-6.27 171.54-12.06L171.54-12.06ZM179.77-14.43L179.74-12.94Q179.74-9.28 180.89-7.57 182.04-5.86 184.28-5.86L184.28-5.86Q188.68-5.86 188.78-12.62L188.78-12.62 188.78-13.45Q188.78-20.56 184.24-20.56L184.24-20.56Q180.11-20.56 179.77-14.43L179.77-14.43ZM216.61 0L216.36-2.86Q213.75 0.49 209.31 0.49L209.31 0.49Q204.96 0.49 202.73-2.04 200.49-4.57 200.49-9.3L200.49-9.3 200.49-26.42 208.72-26.42 208.72-9.25Q208.72-5.86 212.02-5.86L212.02-5.86Q214.85-5.86 216.04-7.89L216.04-7.89 216.04-26.42 224.32-26.42 224.32 0 216.61 0ZM244.95-26.61L244.8-18.97 242.09-19.17Q238.21-19.17 237.11-16.72L237.11-16.72 237.11 0 228.88 0 228.88-26.42 236.6-26.42 236.87-23.02Q238.94-26.9 242.65-26.9L242.65-26.9Q243.97-26.9 244.95-26.61L244.95-26.61ZM280.83-12.04L289.35-12.04Q289.18-8.33 287.35-5.48 285.52-2.64 282.21-1.07 278.9 0.49 274.66 0.49L274.66 0.49Q267.65 0.49 263.62-4.08 259.59-8.64 259.59-16.97L259.59-16.97 259.59-18.73Q259.59-23.95 261.41-27.87 263.23-31.79 266.65-33.92 270.07-36.06 274.56-36.06L274.56-36.06Q281.03-36.06 284.96-32.65 288.89-29.25 289.43-23.27L289.43-23.27 280.88-23.27Q280.78-26.51 279.24-27.93 277.71-29.35 274.56-29.35L274.56-29.35Q271.36-29.35 269.87-26.95 268.38-24.56 268.31-19.31L268.31-19.31 268.31-16.8Q268.31-11.11 269.74-8.67 271.16-6.23 274.66-6.23L274.66-6.23Q277.61-6.23 279.17-7.62 280.73-9.01 280.83-12.04L280.83-12.04ZM316.13 0L307.9 0Q307.47-0.81 307.12-2.37L307.12-2.37Q304.85 0.49 300.78 0.49L300.78 0.49Q297.04 0.49 294.43-1.77 291.82-4.03 291.82-7.45L291.82-7.45Q291.82-11.74 294.99-13.94 298.16-16.14 304.22-16.14L304.22-16.14 306.76-16.14 306.76-17.53Q306.76-21.17 303.61-21.17L303.61-21.17Q300.68-21.17 300.68-18.29L300.68-18.29 292.45-18.29Q292.45-22.12 295.71-24.51 298.97-26.9 304.02-26.9 309.08-26.9 312.01-24.44 314.94-21.97 315.01-17.68L315.01-17.68 315.01-5.98Q315.06-2.34 316.13-0.42L316.13-0.42 316.13 0ZM302.75-5.37L302.75-5.37Q304.29-5.37 305.3-6.03 306.32-6.69 306.76-7.52L306.76-7.52 306.76-11.74 304.36-11.74Q300.07-11.74 300.07-7.89L300.07-7.89Q300.07-6.76 300.82-6.07 301.58-5.37 302.75-5.37ZM333.39-7.42L333.39-7.42Q333.39-8.47 332.29-9.11 331.19-9.74 328.12-10.42 325.04-11.11 323.04-12.22 321.04-13.33 319.99-14.92 318.94-16.5 318.94-18.55L318.94-18.55Q318.94-22.19 321.94-24.55 324.94-26.9 329.8-26.9L329.8-26.9Q335.03-26.9 338.2-24.54 341.37-22.17 341.37-18.31L341.37-18.31 333.12-18.31Q333.12-21.48 329.78-21.48L329.78-21.48Q328.48-21.48 327.6-20.76 326.73-20.04 326.73-18.97L326.73-18.97Q326.73-17.87 327.8-17.19 328.87-16.5 331.23-16.06 333.59-15.63 335.37-15.01L335.37-15.01Q341.32-12.96 341.32-7.67L341.32-7.67Q341.32-4.05 338.11-1.78 334.9 0.49 329.8 0.49L329.8 0.49Q326.41 0.49 323.75-0.73 321.09-1.95 319.6-4.05 318.11-6.15 318.11-8.47L318.11-8.47 325.8-8.47Q325.85-6.64 327.02-5.8 328.19-4.96 330.02-4.96L330.02-4.96Q331.71-4.96 332.55-5.64 333.39-6.32 333.39-7.42ZM353.21-37.5L353.21-23.58Q355.85-26.9 359.95-26.9L359.95-26.9Q364.32-26.9 366.54-24.32 368.76-21.73 368.81-16.67L368.81-16.67 368.81 0 360.56 0 360.56-16.48Q360.56-18.58 359.71-19.57 358.85-20.56 356.8-20.56L356.8-20.56Q354.26-20.56 353.21-18.95L353.21-18.95 353.21 0 344.98 0 344.98-37.5 353.21-37.5ZM408.6-20.75L408.6-14.16 394.78-14.16 394.78 0 386.21 0 386.21-35.55 409.99-35.55 409.99-28.93 394.78-28.93 394.78-20.75 408.6-20.75ZM421.86-37.5L421.86 0 413.6 0 413.6-37.5 421.86-37.5ZM425.91-12.06L425.88-13.45Q425.88-17.41 427.42-20.5 428.96-23.58 431.84-25.24 434.72-26.9 438.6-26.9L438.6-26.9Q444.54-26.9 447.95-23.23 451.37-19.56 451.37-13.23L451.37-13.23 451.37-12.94Q451.37-6.76 447.94-3.14 444.51 0.49 438.65 0.49L438.65 0.49Q433.01 0.49 429.59-2.89 426.18-6.27 425.91-12.06L425.91-12.06ZM434.13-14.43L434.11-12.94Q434.11-9.28 435.26-7.57 436.41-5.86 438.65-5.86L438.65-5.86Q443.05-5.86 443.14-12.62L443.14-12.62 443.14-13.45Q443.14-20.56 438.6-20.56L438.6-20.56Q434.48-20.56 434.13-14.43L434.13-14.43ZM478.1 0L469.87 0Q469.43-0.81 469.09-2.37L469.09-2.37Q466.82 0.49 462.75 0.49L462.75 0.49Q459.01 0.49 456.4-1.77 453.79-4.03 453.79-7.45L453.79-7.45Q453.79-11.74 456.96-13.94 460.13-16.14 466.19-16.14L466.19-16.14 468.73-16.14 468.73-17.53Q468.73-21.17 465.58-21.17L465.58-21.17Q462.65-21.17 462.65-18.29L462.65-18.29 454.42-18.29Q454.42-22.12 457.68-24.51 460.94-26.9 465.99-26.9 471.05-26.9 473.98-24.44 476.91-21.97 476.98-17.68L476.98-17.68 476.98-5.98Q477.03-2.34 478.1-0.42L478.1-0.42 478.1 0ZM464.72-5.37L464.72-5.37Q466.26-5.37 467.27-6.03 468.29-6.69 468.73-7.52L468.73-7.52 468.73-11.74 466.33-11.74Q462.04-11.74 462.04-7.89L462.04-7.89Q462.04-6.76 462.79-6.07 463.55-5.37 464.72-5.37ZM482.88-32.98L491.11-32.98 491.11-26.42 495.46-26.42 495.46-20.7 491.11-20.7 491.11-8.62Q491.11-7.13 491.65-6.54 492.19-5.96 493.77-5.96L493.77-5.96Q494.99-5.96 495.82-6.1L495.82-6.1 495.82-0.22Q493.6 0.49 491.19 0.49L491.19 0.49Q486.94 0.49 484.91-1.51 482.88-3.52 482.88-7.59L482.88-7.59 482.88-20.7 479.52-20.7 479.52-26.42 482.88-26.42 482.88-32.98Z" opacity="1" transform="matrix(1,0,0,1,0,0)" fill="#ffffff" class="undefined-text-1" data-fill-palette-color="secondary" id="text-1"></path></svg></g></svg></g></svg></g></svg></g><g><svg viewBox="0 0 219.80535251585903 219.80535251585903" height="219.80535251585903" width="219.80535251585903"><g><svg></svg></g><g id="icon-0"><svg viewBox="0 0 219.80535251585903 219.80535251585903" height="219.80535251585903" width="219.80535251585903"><g><path d="M0 109.903c0-60.698 49.205-109.903 109.903-109.903 60.698 0 109.903 49.205 109.902 109.903 0 60.698-49.205 109.903-109.902 109.902-60.698 0-109.903-49.205-109.903-109.902zM109.903 210.248c55.419 0 100.346-44.926 100.345-100.345 0-55.419-44.926-100.346-100.345-100.346-55.419 0-100.346 44.926-100.346 100.346 0 55.419 44.926 100.346 100.346 100.345z" data-fill-palette-color="accent" fill="#ffffff" stroke="transparent"></path></g><g transform="matrix(1,0,0,1,53.20936079026167,54.941592403506185)"><svg viewBox="0 0 113.38663093533569 109.92216770884666" height="109.92216770884666" width="113.38663093533569"><g><svg xmlns="http://www.w3.org/2000/svg" xmlns:xlink="http://www.w3.org/1999/xlink" version="1.1" x="0" y="0" viewBox="15.392999649047852 19.031999588012695 70.39900207519531 68.24800109863281" enable-background="new 0 0 100.542 100.917" xml:space="preserve" height="109.92216770884666" width="113.38663093533569" class="icon-s-0" data-fill-palette-color="accent" id="s-0"><path fill="#ffffff" d="M85.792 87.28H15.393v-1.421h70.399V87.28zM85.792 82.978H15.393v-1.422h70.399V82.978zM85.792 78.673H15.393v-1.421h70.399V78.673zM85.792 74.372H15.393V72.95h70.399V74.372zM85.792 70.067H15.393v-1.421h70.399V70.067zM85.792 65.765H15.393v-1.422h70.399V65.765zM85.792 61.46H15.393V60.04h70.399V61.46zM85.792 57.158H15.393v-1.421h70.399V57.158z" data-fill-palette-color="accent"></path><g fill="#ffffff" data-fill-palette-color="accent"><path fill="#ffffff" d="M78.799 25.659H23.159v23.927h55.641V25.659zM50.592 45.771c-4.632 0-8.387-3.755-8.387-8.387 0-4.632 3.755-8.387 8.387-8.387s8.388 3.755 8.388 8.387C58.98 42.017 55.224 45.771 50.592 45.771z" data-fill-palette-color="accent"></path><path fill="#ffffff" d="M15.393 19.032v36.705h70.399V19.032H15.393zM80.22 51.007H21.738v-26.77H80.22V51.007z" data-fill-palette-color="accent"></path></g></svg></g></svg></g></svg></g></svg></g></svg></g><defs></defs></svg><rect width="395.52" height="130.6616723650258" fill="none" stroke="none" visibility="hidden"></rect></g></svg></g></svg>